<svg id="edit" xmlns="http://www.w3.org/2000/svg" xmlns:xlink="http://www.w3.org/1999/xlink" width="14.839" height="12.878" viewBox="0 0 14.839 12.878">
  <defs>
    <clipPath id="clip-path">
      <rect id="사각형_816" data-name="사각형 816" width="14.839" height="12.878" fill="none"/>
    </clipPath>
  </defs>
  <g id="그룹_2455" data-name="그룹 2455" clip-path="url(#clip-path)">
    <path id="패스_8148" data-name="패스 8148" d="M3.306,10.694a1.012,1.012,0,0,1-.973-1.273L2.8,7.645a1.014,1.014,0,0,1,.262-.454l6.9-6.9a1.037,1.037,0,0,1,1.431,0l1.3,1.3a1.013,1.013,0,0,1,0,1.431l-6.9,6.9a1.011,1.011,0,0,1-.457.263l-1.776.472a1.018,1.018,0,0,1-.264.035M10.685.974a.031.031,0,0,0-.022.008l-6.9,6.9-.48,1.791,1.06-.234.754-.2L5.643,8.7l6.368-6.368L10.706.981a.028.028,0,0,0-.021-.008" transform="translate(-0.971 0)"/>
    <path id="패스_8149" data-name="패스 8149" d="M14.348,21.585H.491a.491.491,0,1,1,0-.982H14.348a.491.491,0,1,1,0,.982" transform="translate(0 -8.707)"/>
  </g>
</svg>
