<svg id="photo" xmlns="http://www.w3.org/2000/svg" width="22" height="22" viewBox="0 0 22 22">
  <circle id="타원_274" data-name="타원 274" cx="11" cy="11" r="11" fill="#343434"/>
  <g id="camera" transform="translate(5 6)">
    <path id="패스_9392" data-name="패스 9392" d="M11.88,12.42V7.668a.792.792,0,0,0-.792-.792H10.16a2.376,2.376,0,0,1-1.679-.7l-.657-.656a.792.792,0,0,0-.559-.232H5.408a.792.792,0,0,0-.56.232l-.656.656a2.376,2.376,0,0,1-1.68.7H1.584a.792.792,0,0,0-.792.792V12.42a.792.792,0,0,0,.792.792h9.5A.792.792,0,0,0,11.88,12.42ZM1.584,6.084A1.584,1.584,0,0,0,0,7.668V12.42A1.584,1.584,0,0,0,1.584,14h9.5a1.584,1.584,0,0,0,1.584-1.584V7.668a1.584,1.584,0,0,0-1.584-1.584H10.16A1.584,1.584,0,0,1,9.04,5.62l-.656-.656A1.584,1.584,0,0,0,7.264,4.5H5.408a1.584,1.584,0,0,0-1.12.464l-.656.656a1.584,1.584,0,0,1-1.12.464Z" transform="translate(0 -4.5)" fill="#fff" fill-rule="evenodd"/>
    <path id="패스_9393" data-name="패스 9393" d="M12.9,16a1.98,1.98,0,1,0-1.98-1.98A1.98,1.98,0,0,0,12.9,16Zm0,.792a2.772,2.772,0,1,0-2.772-2.772A2.772,2.772,0,0,0,12.9,16.794Z" transform="translate(-6.561 -8.874)" fill="#fff" fill-rule="evenodd"/>
    <path id="패스_9394" data-name="패스 9394" d="M5.292,13.9a.4.4,0,1,1-.4-.4A.4.4,0,0,1,5.292,13.9Z" transform="translate(-2.916 -10.332)" fill="#fff"/>
  </g>
</svg>
