<svg id="send" xmlns="http://www.w3.org/2000/svg" xmlns:xlink="http://www.w3.org/1999/xlink" width="21" height="19" viewBox="0 0 21 19">
  <defs>
    <clipPath id="clip-path">
      <rect id="사각형_1922" data-name="사각형 1922" width="21" height="19" fill="#e38b32"/>
    </clipPath>
  </defs>
  <g id="그룹_3260" data-name="그룹 3260">
    <g id="그룹_3259" data-name="그룹 3259" clip-path="url(#clip-path)">
      <path id="패스_9582" data-name="패스 9582" d="M20.3.044l-20,9a.5.5,0,0,0,.061.935l6.769,2.03,1.894,6.629a.5.5,0,0,0,.377.352.524.524,0,0,0,.1.01.5.5,0,0,0,.384-.179L13.651,14.3l6.663,2.665A.493.493,0,0,0,20.5,17a.5.5,0,0,0,.5-.5V.5a.5.5,0,0,0-.7-.456M1.927,9.407,17.386,2.45,7.3,11.017Zm7.794,8.047L8.069,11.673l8.389-7.125-6.343,7.633a.5.5,0,0,0,.065.7.481.481,0,0,0,.134.08l2.361.944ZM20,15.762l-8.676-3.471L20,1.852Z" fill="#e38b32"/>
    </g>
  </g>
</svg>
