<svg id="share_1" data-name="share 1" xmlns="http://www.w3.org/2000/svg" width="13.618" height="13.618" viewBox="0 0 13.618 13.618">
  <path id="패스_8133" data-name="패스 8133" d="M15.96,7.631,10,10.61l-.381-.761L15.579,6.87Zm-.381,7.66L9.621,12.312,10,11.551,15.96,14.53l-.381.761Z" transform="translate(-5.982 -4.271)" fill-rule="evenodd"/>
  <path id="패스_8134" data-name="패스 8134" d="M11.49,3.4a1.277,1.277,0,1,0-1.277-1.277A1.277,1.277,0,0,0,11.49,3.4Zm0,.851A2.128,2.128,0,1,0,9.362,2.128,2.128,2.128,0,0,0,11.49,4.256Zm0,8.511a1.277,1.277,0,1,0-1.277-1.277A1.277,1.277,0,0,0,11.49,12.767Zm0,.851A2.128,2.128,0,1,0,9.362,11.49,2.128,2.128,0,0,0,11.49,13.618ZM2.128,8.086A1.277,1.277,0,1,0,.851,6.809,1.277,1.277,0,0,0,2.128,8.086Zm0,.851A2.128,2.128,0,1,0,0,6.809,2.128,2.128,0,0,0,2.128,8.937Z" fill-rule="evenodd"/>
</svg>
