<svg id="map" xmlns="http://www.w3.org/2000/svg" width="48" height="48" viewBox="0 0 48 48">
  <g id="타원_139" data-name="타원 139" fill="none" stroke="#707070" stroke-width="1">
    <circle cx="24" cy="24" r="24" stroke="none"/>
    <circle cx="24" cy="24" r="23.5" fill="none"/>
  </g>
  <g id="그룹_3221" data-name="그룹 3221" transform="translate(-24 -189)">
    <path id="패스_9543" data-name="패스 9543" d="M9.239,0A9.235,9.235,0,0,0,6.592,18.083l2.123,2.776a.66.66,0,0,0,1.049,0l2.122-2.776A9.235,9.235,0,0,0,9.239,0m2.082,16.872a.666.666,0,0,0-.351.236L9.239,19.372,7.508,17.108a.661.661,0,0,0-.351-.236,7.919,7.919,0,1,1,4.164,0" transform="translate(38.761 202.441)" fill="#707070"/>
    <path id="패스_9544" data-name="패스 9544" d="M12.3,9a3.3,3.3,0,1,0,3.3,3.3A3.3,3.3,0,0,0,12.3,9m0,5.28a1.98,1.98,0,1,1,1.98-1.98,1.982,1.982,0,0,1-1.98,1.98" transform="translate(35.7 199.38)" fill="#707070"/>
  </g>
</svg>
