<svg id="facebook" xmlns="http://www.w3.org/2000/svg" xmlns:xlink="http://www.w3.org/1999/xlink" width="25.227" height="25.227" viewBox="0 0 25.227 25.227">
  <defs>
    <clipPath id="clip-path">
      <rect id="사각형_1567" data-name="사각형 1567" width="6.089" height="11.631" fill="none"/>
    </clipPath>
  </defs>
  <g id="그룹_2888" data-name="그룹 2888">
    <g id="패스_9243" data-name="패스 9243" fill="none">
      <path d="M12.613,0A12.613,12.613,0,1,1,0,12.613,12.613,12.613,0,0,1,12.613,0Z" stroke="none"/>
      <path d="M 12.61328125 1.000001907348633 C 9.511260986328125 1.000001907348633 6.594911575317383 2.207990646362305 4.401451110839844 4.401451110839844 C 2.207990646362305 6.594911575317383 1.000001907348633 9.511260986328125 1.000001907348633 12.61328125 C 1.000001907348633 15.71530151367188 2.207990646362305 18.63165092468262 4.401451110839844 20.82511138916016 C 6.594911575317383 23.0185718536377 9.511260986328125 24.22656059265137 12.61328125 24.22656059265137 C 15.71530151367188 24.22656059265137 18.63165092468262 23.0185718536377 20.82511138916016 20.82511138916016 C 23.0185718536377 18.63165092468262 24.22656059265137 15.71530151367188 24.22656059265137 12.61328125 C 24.22656059265137 9.511260986328125 23.0185718536377 6.594911575317383 20.82511138916016 4.401451110839844 C 18.63165092468262 2.207990646362305 15.71530151367188 1.000001907348633 12.61328125 1.000001907348633 M 12.61328125 1.9073486328125e-06 C 19.57940101623535 1.9073486328125e-06 25.22656059265137 5.647161483764648 25.22656059265137 12.61328125 C 25.22656059265137 19.57940101623535 19.57940101623535 25.22656059265137 12.61328125 25.22656059265137 C 5.647161483764648 25.22656059265137 1.9073486328125e-06 19.57940101623535 1.9073486328125e-06 12.61328125 C 1.9073486328125e-06 5.647161483764648 5.647161483764648 1.9073486328125e-06 12.61328125 1.9073486328125e-06 Z" stroke="none" fill="#fff"/>
    </g>
  </g>
  <g id="그룹_2887" data-name="그룹 2887" transform="translate(9.154 6.804)">
    <g id="그룹_2886" data-name="그룹 2886" clip-path="url(#clip-path)">
      <path id="패스_9244" data-name="패스 9244" d="M4.425,0A3.037,3.037,0,0,0,2.578.772a2.1,2.1,0,0,0-.67,1.3V4.486H0v2.03H1.908v5.115h2.03V6.5H5.8l.2-1.928s.041-.1-.162-.1H3.937V3a.987.987,0,0,1,1.015-1.1H6.089V.2A4.365,4.365,0,0,0,4.425,0" transform="translate(0 0)" fill="#fff"/>
    </g>
  </g>
</svg>
