<svg id="comment" xmlns="http://www.w3.org/2000/svg" width="25.352" height="25.388" viewBox="0 0 25.352 25.388">
  <path id="패스_9348" data-name="패스 9348" d="M12.7,25.338a12.708,12.708,0,1,1,10.976-6.366l1.248,4.674a.983.983,0,0,1-1.205,1.205l-4.653-1.227A12.844,12.844,0,0,1,12.7,25.338Zm.021-23.411a10.609,10.609,0,0,0-7.571,3.13A10.708,10.708,0,0,0,18.386,21.722a.924.924,0,0,1,.782-.106l3.447.931L21.685,19.1a1.121,1.121,0,0,1,.106-.782,10.7,10.7,0,0,0-9.072-16.39Z" transform="translate(-0.037 0.05)" fill="#fff"/>
</svg>
