<svg id="instagram" xmlns="http://www.w3.org/2000/svg" width="25.227" height="25.227" viewBox="0 0 25.227 25.227">
  <g id="패스_9243" data-name="패스 9243" fill="none">
    <path d="M12.613,0A12.613,12.613,0,1,1,0,12.613,12.613,12.613,0,0,1,12.613,0Z" stroke="none"/>
    <path d="M 12.61328125 1.000001907348633 C 9.511260986328125 1.000001907348633 6.594911575317383 2.207990646362305 4.401451110839844 4.401451110839844 C 2.207990646362305 6.594911575317383 1.000001907348633 9.511260986328125 1.000001907348633 12.61328125 C 1.000001907348633 15.71530151367188 2.207990646362305 18.63165092468262 4.401451110839844 20.82511138916016 C 6.594911575317383 23.0185718536377 9.511260986328125 24.22656059265137 12.61328125 24.22656059265137 C 15.71530151367188 24.22656059265137 18.63165092468262 23.0185718536377 20.82511138916016 20.82511138916016 C 23.0185718536377 18.63165092468262 24.22656059265137 15.71530151367188 24.22656059265137 12.61328125 C 24.22656059265137 9.511260986328125 23.0185718536377 6.594911575317383 20.82511138916016 4.401451110839844 C 18.63165092468262 2.207990646362305 15.71530151367188 1.000001907348633 12.61328125 1.000001907348633 M 12.61328125 1.9073486328125e-06 C 19.57940101623535 1.9073486328125e-06 25.22656059265137 5.647161483764648 25.22656059265137 12.61328125 C 25.22656059265137 19.57940101623535 19.57940101623535 25.22656059265137 12.61328125 25.22656059265137 C 5.647161483764648 25.22656059265137 1.9073486328125e-06 19.57940101623535 1.9073486328125e-06 12.61328125 C 1.9073486328125e-06 5.647161483764648 5.647161483764648 1.9073486328125e-06 12.61328125 1.9073486328125e-06 Z" stroke="none" fill="#fff"/>
  </g>
  <path id="instagram-2" data-name="instagram" d="M8.255,3c-1.427,0-1.606.006-2.167.032a3.868,3.868,0,0,0-1.276.245A2.686,2.686,0,0,0,3.276,4.813a3.875,3.875,0,0,0-.245,1.276C3.006,6.649,3,6.828,3,8.255s.006,1.606.032,2.167A3.868,3.868,0,0,0,3.276,11.7a2.685,2.685,0,0,0,1.537,1.537,3.875,3.875,0,0,0,1.276.245c.561.025.74.032,2.167.032s1.606-.006,2.167-.032a3.868,3.868,0,0,0,1.276-.245A2.685,2.685,0,0,0,13.235,11.7a3.875,3.875,0,0,0,.245-1.276c.025-.561.032-.74.032-2.167S13.5,6.649,13.48,6.089a3.868,3.868,0,0,0-.245-1.276A2.685,2.685,0,0,0,11.7,3.276a3.875,3.875,0,0,0-1.276-.245C9.861,3.006,9.682,3,8.255,3m0,.947c1.4,0,1.569.005,2.123.03a2.92,2.92,0,0,1,.976.181,1.74,1.74,0,0,1,1,1,2.917,2.917,0,0,1,.181.976c.025.555.03.72.03,2.124s-.005,1.569-.03,2.123a2.938,2.938,0,0,1-.181.976,1.74,1.74,0,0,1-1,1,2.916,2.916,0,0,1-.976.181c-.554.025-.72.03-2.124.03s-1.57-.005-2.123-.03a2.938,2.938,0,0,1-.976-.181,1.74,1.74,0,0,1-1-1,2.9,2.9,0,0,1-.181-.976c-.025-.555-.03-.72-.03-2.124s.005-1.569.03-2.123a2.92,2.92,0,0,1,.181-.976,1.74,1.74,0,0,1,1-1,2.9,2.9,0,0,1,.976-.181c.555-.025.72-.03,2.124-.03m0,6.06a1.752,1.752,0,1,1,1.752-1.752,1.751,1.751,0,0,1-1.752,1.752m0-4.45a2.7,2.7,0,1,0,2.7,2.7,2.7,2.7,0,0,0-2.7-2.7m3.436-.107a.631.631,0,1,1-.631-.631.631.631,0,0,1,.631.631" transform="translate(4.357 4.357)" fill="#fff" fill-rule="evenodd"/>
</svg>
