<svg id="share_3" data-name="share 3" xmlns="http://www.w3.org/2000/svg" width="18.576" height="20.008" viewBox="0 0 18.576 20.008">
  <path id="share" d="M17.228,15.085a3.569,3.569,0,0,0-2.776,1.349L9.234,13.172a3.184,3.184,0,0,0,0-1.884l5.218-3.262a3.569,3.569,0,1,0-.792-2.22,3.419,3.419,0,0,0,.143.942L8.585,10.01a3.569,3.569,0,1,0,0,4.439L13.8,17.711a3.419,3.419,0,0,0-.143.943,3.569,3.569,0,1,0,3.569-3.569Zm0-11.42a2.141,2.141,0,1,1-2.141,2.141A2.141,2.141,0,0,1,17.228,3.664ZM5.808,14.371A2.141,2.141,0,1,1,7.95,12.23,2.141,2.141,0,0,1,5.808,14.371Zm11.42,6.424a2.141,2.141,0,1,1,2.141-2.141,2.141,2.141,0,0,1-2.141,2.141Z" transform="translate(-2.222 -2.214)"/>
</svg>
