<svg id="search_2" data-name="search 2" xmlns="http://www.w3.org/2000/svg" width="14.605" height="16.198" viewBox="0 0 14.605 16.198">
  <g id="패스_1724" data-name="패스 1724" transform="matrix(0.755, -0.656, 0.656, 0.755, 0, 6.752)" fill="none">
    <path d="M5.2,0a5.046,5.046,0,0,1,5.09,5.154,5.315,5.315,0,0,1-5.2,5.266A5.046,5.046,0,0,1,0,5.266,5.315,5.315,0,0,1,5.2,0Z" stroke="none"/>
    <path d="M 5.257970809936523 1.000003814697266 L 5.212620735168457 1.000243186950684 C 2.914870738983154 1.02513313293457 1.025211334228516 2.943603515625 1.000250816345215 5.276843547821045 C 0.9882211685180664 6.401203632354736 1.407991409301758 7.451403617858887 2.18224048614502 8.233973503112793 C 2.939450740814209 8.999323844909668 3.952270984649658 9.420823097229004 5.034141063690186 9.420823097229004 L 5.079491138458252 9.420583724975586 C 7.377241134643555 9.395693778991699 9.266910552978516 7.47722339630127 9.291871070861816 5.143973350524902 C 9.303900718688965 4.019623279571533 8.884130477905273 2.969433307647705 8.109890937805176 2.186863899230957 C 7.352670669555664 1.421503067016602 6.339840888977051 1.000003814697266 5.257970809936523 1.000003814697266 M 5.257966995239258 -9.5367431640625e-07 C 8.073704719543457 -9.5367431640625e-07 10.3223876953125 2.296180725097656 10.29181098937988 5.15467357635498 C 10.26103115081787 8.032143592834473 7.932240962982178 10.38974380493164 5.090321063995361 10.42052364349365 C 2.248349189758301 10.45130348205566 -0.03046894073486328 8.143613815307617 0.0003108978271484375 5.266143321990967 C 0.03109073638916016 2.388683319091797 2.359870910644531 0.03108310699462891 5.201790809631348 0.0003032684326171875 C 5.220524311065674 0.0001001358032226562 5.239283084869385 -9.5367431640625e-07 5.257966995239258 -9.5367431640625e-07 Z" stroke="none" fill="#f29639"/>
  </g>
  <g id="사각형_36" data-name="사각형 36" transform="matrix(0.755, -0.656, 0.656, 0.755, 9.904, 11.802)" fill="#fff" stroke="#f29639" stroke-width="1">
    <rect width="1.165" height="5.825" stroke="none"/>
    <rect x="0.5" y="0.5" width="0.165" height="4.825" fill="none"/>
  </g>
</svg>
