<svg id="logo" xmlns="http://www.w3.org/2000/svg" xmlns:xlink="http://www.w3.org/1999/xlink" width="201.075" height="76.785" viewBox="0 0 201.075 76.785">
  <defs>
    <clipPath id="clip-path">
      <rect id="사각형_2214" data-name="사각형 2214" width="201.075" height="76.785" fill="none"/>
    </clipPath>
    <clipPath id="clip-path-2">
      <rect id="사각형_2213" data-name="사각형 2213" width="55.276" height="55.276" fill="none"/>
    </clipPath>
    <clipPath id="clip-path-3">
      <path id="패스_9698" data-name="패스 9698" d="M34.168,58.9A26.055,26.055,0,1,1,60.223,84.95,26.085,26.085,0,0,1,34.168,58.9m-1.583,0A27.638,27.638,0,1,0,60.223,31.257,27.669,27.669,0,0,0,32.585,58.9" transform="translate(-32.585 -31.257)" fill="none"/>
    </clipPath>
    <linearGradient id="linear-gradient" x1="-0.199" y1="1.198" x2="-0.193" y2="1.198" gradientUnits="objectBoundingBox">
      <stop offset="0" stop-color="#ff5723"/>
      <stop offset="1" stop-color="#ff9009"/>
    </linearGradient>
  </defs>
  <g id="그룹_3571" data-name="그룹 3571">
    <g id="그룹_3570" data-name="그룹 3570" clip-path="url(#clip-path)">
      <g id="그룹_3569" data-name="그룹 3569" transform="translate(11.016 11.581)" opacity="0.11" style="mix-blend-mode: multiply;isolation: isolate">
        <g id="그룹_3568" data-name="그룹 3568">
          <g id="그룹_3567" data-name="그룹 3567" clip-path="url(#clip-path-2)">
            <path id="패스_9697" data-name="패스 9697" d="M60.222,89.533A27.638,27.638,0,1,1,87.86,61.9,27.669,27.669,0,0,1,60.222,89.533m0-53.693A26.055,26.055,0,1,0,86.277,61.9,26.085,26.085,0,0,0,60.222,35.84" transform="translate(-32.584 -34.257)"/>
          </g>
        </g>
      </g>
    </g>
  </g>
  <g id="그룹_3572" data-name="그룹 3572" transform="translate(11.018 10.568)" clip-path="url(#clip-path-3)">
    <rect id="사각형_2215" data-name="사각형 2215" width="55.276" height="55.276" transform="translate(0 0)" fill="url(#linear-gradient)"/>
  </g>
  <g id="그룹_3575" data-name="그룹 3575">
    <path id="패스_9699" data-name="패스 9699" d="M103.622,85.81l-22.1-.108a.71.71,0,0,0-.805.691l-.227,11.963a1.469,1.469,0,0,0,2.051,1.376l20.6-12.575a1.469,1.469,0,0,0,.29-2.529L83.3,72.678a1.469,1.469,0,0,0-2.341,1.153l-.151,7.887-5.2,4.229a.735.735,0,0,0,.142,1.232l4.606,2.243" transform="translate(-49.871 -47.916)" fill="#eb8d00"/>
    <path id="패스_9700" data-name="패스 9700" d="M80.821,99.3a2.053,2.053,0,0,1-2.048-2.091l.159-8.413a.006.006,0,0,0,0-.005L74.4,86.583a1.35,1.35,0,0,1-.672-.682,1.319,1.319,0,0,1,.381-1.542L79.095,80.3a0,0,0,0,0,0,0l.144-7.544a2.118,2.118,0,0,1,.784-1.646,2.049,2.049,0,0,1,2.459-.054l20.16,11.968h0a2.05,2.05,0,0,1-.364,3.513L81.674,99.112l-.038.016a2.05,2.05,0,0,1-.815.17M80.29,85.14a.129.129,0,0,0-.128.126l-.226,11.92a.927.927,0,0,0,.316.739.877.877,0,0,0,.889.148L100.828,86.03a.423.423,0,0,0-.219-.784l-20.264-.1-.037-.005H80.29M81.3,71.833a.9.9,0,0,0-.488.147.927.927,0,0,0-.4.771L80.25,80.86a.006.006,0,0,1,0,0l-5.406,4.4a.154.154,0,0,0,.03.257L78.948,87.5a.006.006,0,0,0,.008-.005L79,85.244a1.292,1.292,0,0,1,1.422-1.262l20.123.1a.423.423,0,0,0,.219-.787L81.819,72.009a.878.878,0,0,0-.524-.176" transform="translate(-48.732 -46.779)" fill="#fff"/>
    <path id="패스_9701" data-name="패스 9701" d="M315.894,69.809a.835.835,0,0,1,.337-.565.924.924,0,0,1,.555-.3l4.4-1.925-.036-.831.071-7a3.737,3.737,0,0,1,.186-.829,3.705,3.705,0,0,0,.186-.873l.226-.523.312-.216.574.006.526.53a1.654,1.654,0,0,0,.127.526,1.694,1.694,0,0,1,.127.57l-.078,7.741,1.686-.6c.147-.057.333-.12.554-.191s.45-.134.687-.19q.4-.083.842-.166l1.46-.117.307.265,0,.306-.315.566-.268.26-1.111.557q-.133.087-.6.322t-1,.493l-.977.471q-.445.215-.578.3l-.844.341-4.221,2.1a1.384,1.384,0,0,0-.576.169,2.343,2.343,0,0,1-.311.128l-1.106-.011-.837-.314-.307-.266Zm5.747,4.387-.037-.744a.441.441,0,0,1,.135-.239,1.937,1.937,0,0,1,.313-.281,1.685,1.685,0,0,1,.445-.3l.8-.3.577-.213,1.68.017.528.224.306.309a2.056,2.056,0,0,1,.392.529,2.767,2.767,0,0,0,.174.308,1.529,1.529,0,0,0,.127.548,1.526,1.526,0,0,1,.127.548l-.023,2.274a2.773,2.773,0,0,1-.139.676,2.791,2.791,0,0,0-.139.633,1.871,1.871,0,0,1-.139.589q-.136.371-.317.762t-.316.718a1.487,1.487,0,0,0-.137.458,2.955,2.955,0,0,0-.269.3,1.114,1.114,0,0,0-.27.478,5.289,5.289,0,0,1-.492.564l-.312.3a1.694,1.694,0,0,1-.355.127,1.185,1.185,0,0,1-.531.126l-.265,0a1.647,1.647,0,0,1-1.45-.846,1.059,1.059,0,0,0-.26-.527,2.935,2.935,0,0,0-.262-.309,1.8,1.8,0,0,0-.105-.548,1.766,1.766,0,0,1-.1-.548l.035-3.455Zm2.786-.059a1.477,1.477,0,0,0-.443.083.5.5,0,0,0-.177.086l-.017,5.992a1.4,1.4,0,0,1,.315-.544.966.966,0,0,0,.271-.5,1.832,1.832,0,0,1,.25-.7,1.9,1.9,0,0,0,.25-.654l.036-3.586Zm6.118,12.185-.707-.007a.946.946,0,0,1-.129-.307,2.361,2.361,0,0,1-.083-.482l0-.219a3.046,3.046,0,0,1,.433-1.286,5.966,5.966,0,0,1,.831-1.238l1.071-1.039a2.459,2.459,0,0,0,.444-.127q.221-.041.4-.083a1.351,1.351,0,0,1,.31-.041l1.017.01a1.026,1.026,0,0,1,.309.091q.22.09.462.2c.161.075.308.142.44.2a.817.817,0,0,0,.287.09l.614.488a2.443,2.443,0,0,1,.261.374q.173.287.326.572c.1.191.2.374.282.549a1.048,1.048,0,0,1,.129.351,4.169,4.169,0,0,0,.125.7,3.815,3.815,0,0,1,.128.5,2.346,2.346,0,0,1,.041.329l-.014,1.356a4.134,4.134,0,0,1-.049.458c-.032.219-.071.445-.117.677s-.086.452-.117.655a3.659,3.659,0,0,0-.048.393,1.509,1.509,0,0,1-.047.284c-.031.131-.062.255-.092.371q-.047.219-.093.436a1.041,1.041,0,0,1-.136.349q-.135.261-.315.544t-.359.543l-.269.391-.535.476-.577.3a1.851,1.851,0,0,0-.31.041l-.443.083a3.566,3.566,0,0,1-.532.126l-.793-.27a6.371,6.371,0,0,1-.569-.552q-.307-.331-.481-.551a1.025,1.025,0,0,1-.174-.264.84.84,0,0,1-.172-.439.955.955,0,0,0-.042-.241q-.043-.155-.085-.329l-.085-.351.047-4.592Zm4.181-12-.223.216-.044,4.33-.491.52-.663-.006-.483-.311a.545.545,0,0,1-.13-.264,1.51,1.51,0,0,1-.083-.482,7.162,7.162,0,0,1-.441-2.279,16.693,16.693,0,0,0-.177-2.189l.005-.569c0-.028-.013-.175-.039-.437s-.054-.547-.08-.854-.053-.6-.08-.876-.04-.459-.039-.547l.028-2.755q0-.131.028-.612t.033-1.027q.006-.546.032-1.006c.018-.306.027-.5.028-.59l0-.219a3.929,3.929,0,0,1,.095-.677,4.042,4.042,0,0,0,.1-.677,1.077,1.077,0,0,1,.138-.479.948.948,0,0,1,.136-.3l.577-.213.485.224.351.31.26.484a9.831,9.831,0,0,0,.122,1.051q.039.438.079.876t.037.7l0,.35a19.238,19.238,0,0,0,.128,2.56,18.68,18.68,0,0,1,.129,2.473,1.6,1.6,0,0,1,.334-.216c.162-.086.348-.171.555-.257s.4-.171.577-.257a3.836,3.836,0,0,0,.4-.215,5.531,5.531,0,0,1,.578-.344q.4-.215.8-.473l.734-.474a3.375,3.375,0,0,0,.423-.3l1.066-.515.266-.085c0-.116.018-.386.052-.809s.06-.859.079-1.311.046-.881.08-1.289.051-.684.053-.831l.019-1.837.361-.74.492-.564a.859.859,0,0,0,.444-.126,1.1,1.1,0,0,0,.267-.129l.572.268.26.571q0,.263.034,1.05t.071,1.663q.035.876.072,1.641t.034,1.072l-.049,4.811q0,.263-.058,1.312t-.111,2.23q-.056,1.181-.111,2.208t-.057,1.333l0,.262a1.781,1.781,0,0,1-.116.546,1.771,1.771,0,0,0-.116.546.811.811,0,0,1-.047.262c-.03.088-.061.174-.091.262a2.3,2.3,0,0,0-.136.3l-.312.259-.534.3-.439-.311-.216-.527-.033-1.05q0-.219-.057-.876t-.118-1.423q-.059-.765-.1-1.423t-.036-.831l.019-1.881c0-.088-.005-.262-.017-.525s-.017-.547-.014-.853,0-.59-.013-.853-.018-.423-.017-.481Zm-1.209,15.392a3.205,3.205,0,0,0,.1.679,3.333,3.333,0,0,1,.1.723q.223-.261.4-.455a.576.576,0,0,0,.18-.37,7.809,7.809,0,0,0,.321-1.134l.184-.7.034-3.368-.256-.877-.218-.352-.794-.183Z" transform="translate(-209.094 -37.563)" fill="#eb8d00"/>
    <path id="패스_9702" data-name="패스 9702" d="M243.261,100.389a2.72,2.72,0,0,1-.138-.588l-.233-.564a1.955,1.955,0,0,0-.28-.54,5.713,5.713,0,0,1-.373-.669l-.188-.17a.351.351,0,0,1-.141-.259l-.141-.171a1.149,1.149,0,0,1-.212-.126,2.166,2.166,0,0,1-.211-.17,1.359,1.359,0,0,1-.235-.168l-.471-.162-.8-.02-.092-.48-.375-.34-.283-.123-.142,0a1.1,1.1,0,0,0-.853.42,3.006,3.006,0,0,0-.477.76,2.506,2.506,0,0,0-.784.264,2.727,2.727,0,0,0-.5.3,2.885,2.885,0,0,0-.358.208,2.879,2.879,0,0,1-.358.208,2.653,2.653,0,0,1-.382.231,1.755,1.755,0,0,0-.312.469,1.454,1.454,0,0,0-.169.422l0,.79.142.128a.759.759,0,0,1,.285.079.2.2,0,0,0,.333-.009.922.922,0,0,1,.381-.1l.429-.144.431-.451.478-.277-.15,1.189a1.73,1.73,0,0,1-.049.243c-.033.133-.073.28-.122.442s-.09.31-.122.442a1.657,1.657,0,0,0-.049.243l-.011,1.711a2.582,2.582,0,0,1-.074.463,2.618,2.618,0,0,0-.074.462l-.021,3.335a1.634,1.634,0,0,0,.069.393,1.639,1.639,0,0,1,.069.392,1.839,1.839,0,0,0,.259.519,4.451,4.451,0,0,0,.448.645.389.389,0,0,0,.141.3.278.278,0,0,0,.142.128l.285.167a2.175,2.175,0,0,0,.213.169,1.115,1.115,0,0,0,.213.125c.063,0,.158.054.284.167a.679.679,0,0,0,.19.126l.285.123L240,110.9a2.7,2.7,0,0,0,.524-.147,1.734,1.734,0,0,0,.668-.327l.513-.322a2.113,2.113,0,0,0,.188-.247q.14-.2.282-.425l.282-.447c.094-.149.157-.253.189-.313l.094-.178a.673.673,0,0,0,.095-.266v-.219l.189-.4.141-.311a3.016,3.016,0,0,1,.073-.484,3.371,3.371,0,0,0,.073-.441,3.359,3.359,0,0,1,.05-.484c.033-.205.058-.419.076-.638s.042-.425.075-.616a3.107,3.107,0,0,0,.05-.375l-.168-3.285a2.73,2.73,0,0,0-.138-.588m-1.925,3.127c0,.132-.01.279-.027.44s-.026.315-.027.461,0,.234,0,.263l-.147.662-.049.265a2.324,2.324,0,0,1-.1.485,2.442,2.442,0,0,0-.1.442l-.243.753a1.9,1.9,0,0,1-.478.365,2.593,2.593,0,0,1-.621.326l-.232-.915.015-2.369c0-.176.018-.454.053-.835s.06-.769.079-1.165.044-.74.078-1.033.05-.469.051-.528q0-.132,0-.439c0-.2.01-.424.028-.659s.027-.461.028-.681,0-.373,0-.46l.618.07.237.213a1.761,1.761,0,0,1,.165.17.27.27,0,0,1,.07.174l.422,1.041.173,2.671c0,.059,0,.153,0,.285" transform="translate(-155.385 -63.438)" fill="#eb8d00"/>
    <path id="패스_9703" data-name="패스 9703" d="M284.4,95.952c.017-.132.033-.279.05-.44s.033-.308.05-.441.025-.212.025-.242l.049-7.811c0-.028,0-.131,0-.307s-.006-.357-.02-.548-.022-.365-.021-.526,0-.27,0-.329l.011-1.755a2.547,2.547,0,0,0-.068-.5,2.744,2.744,0,0,1-.069-.415l.016-2.457a4.974,4.974,0,0,0-.044-.591,5.329,5.329,0,0,0-.138-.72,8.068,8.068,0,0,1-.137-.874l-.284-.255-.856-.063a1.169,1.169,0,0,0-.334.141c-.191.123-.287.2-.287.228a1.515,1.515,0,0,0-.168.312,3.621,3.621,0,0,1-.169.356c-.065.119-.129.253-.193.4l0,.7a10.134,10.134,0,0,1-.078,1.011c-.05.44-.076.72-.077.836l-.052.616,0,.483c0,.029,0,.125,0,.285s.005.329.021.5.022.343.021.5,0,.257,0,.285l-.025,3.949a4.524,4.524,0,0,1-.717.459,7.918,7.918,0,0,1-.811.419l-.811.331a1.7,1.7,0,0,1-.573.324c-.128.063-.271.125-.429.188-.1.062-.208.138-.335.229-.1.062-.191.131-.287.206a.728.728,0,0,0-.192.2l-2.2,1.117-.527.5-.765.549-.144.223a1.385,1.385,0,0,0-.431.407,3.106,3.106,0,0,1-.287.315l-.145.355v.132a.552.552,0,0,0,.046.262l.094.173c0,.117.077.217.236.3a1.406,1.406,0,0,0,.237.168,2.174,2.174,0,0,1,.475.052,2.086,2.086,0,0,0,.38.055,1.691,1.691,0,0,0,.381-.1c.191-.064.286-.125.287-.184a7.255,7.255,0,0,1,.621-.479q.478-.343,1.051-.71t1.051-.711a7.426,7.426,0,0,0,.622-.479l.811-.419.622-.5,1.767-1.1-.043,6.758.139.61-.01,1.668a3.616,3.616,0,0,0,.045.459c.03.219.069.459.114.721s.084.5.115.72a3.808,3.808,0,0,1,.044.459,2.326,2.326,0,0,0,.567.686l.142.171.428-.013.191-.181a3.8,3.8,0,0,0,.458-.978,3.449,3.449,0,0,0,.122-.53,2.816,2.816,0,0,1,.1-.463,2.871,2.871,0,0,0,.1-.464l0-.439a2.924,2.924,0,0,1,.075-.528,3.206,3.206,0,0,0,.074-.441c0-.088,0-.19,0-.307a1.343,1.343,0,0,1,.05-.352c.032-.118.065-.25.1-.4l-.085-1.533c0-.029.008-.11.025-.242" transform="translate(-180.686 -51.417)" fill="#eb8d00"/>
    <path id="패스_9704" data-name="패스 9704" d="M268.761,98.566l.335-.317a.762.762,0,0,0,.191-.137.563.563,0,0,1,.334-.186l.621-.325.525-.322.144-.136,1.673-1.277.144-.18.812-.462a1.31,1.31,0,0,0,.215-.138,2.689,2.689,0,0,0,.215-.182l.287-.184.144-.136a1.407,1.407,0,0,1,.1-.156.267.267,0,0,0,.048-.155l.192-.269,0-.57-.331-.3-1.285.038-.286.1a1.167,1.167,0,0,0-.43.232,2.994,2.994,0,0,1-.43.232l-.811.4q-.43.21-.788.4a3.073,3.073,0,0,0-.406.231.8.8,0,0,0-.286.1,4.2,4.2,0,0,0-.406.231,4,4,0,0,1-.406.232.9.9,0,0,1-.238.095l-.192.181a.494.494,0,0,1-.334.142l-.143.135-.478.365a2.105,2.105,0,0,1-.406.253q-.311.163-.693.393-.43.232-.907.552l-.192.269a.742.742,0,0,0-.145.355.267.267,0,0,1-.049.155,1.361,1.361,0,0,0-.1.156l-.1.178,0,.7a.45.45,0,0,0,.094.129.221.221,0,0,0,.094.107c.031.014.047.05.047.109l.19.126.285.124.19-.006a2.176,2.176,0,0,0,.667-.173q.429-.166.859-.376t.835-.419q.405-.209.6-.3" transform="translate(-175.348 -61.65)" fill="#eb8d00"/>
    <path id="패스_9705" data-name="패스 9705" d="M423.107,81.169l0-.439a2.225,2.225,0,0,0-.092-.48l-.094-.26-.534-.467-.536.016a.971.971,0,0,0-.563.28.733.733,0,0,0-.32.492,2.985,2.985,0,0,0-.145.4,4.084,4.084,0,0,0-.1.529l-.006.921q0,.22-.031,1.1t-.083,1.889q-.055,1.011-.083,1.91t-.031,1.12l-.005.834-.526.366-2.1,1.773c-.064.061-.167.166-.311.316s-.3.315-.455.5-.311.353-.455.518-.248.278-.311.338l-1.3,1.968c-.065.149-.145.312-.241.49s-.177.342-.241.49q-.145.267-.29.579l-.249,1.762q.045.438.091.743t.092.524a1.756,1.756,0,0,1,.045.306l.375.91.473.469.284.3.522.2,1.38,0c.064,0,.182-.012.357-.032a1.927,1.927,0,0,0,.5-.124q.286-.051.667-.151l1.482-1.1.479-.541c.13-.15.245-.292.343-.427a.634.634,0,0,0,.147-.289l.589-.851a1.318,1.318,0,0,1,.1-.354q.1-.266.2-.576l.3-.8a16.567,16.567,0,0,0,.434-3.281q.035-1.515.14-2.834l1.578-1.187.483-1.111,0-.57-.521-.38-1.431.568q0-.219.007-1.141t-.012-2q-.017-1.074-.011-2.018t.007-1.207M420.51,93c-.065.265-.115.5-.147.706a2.1,2.1,0,0,0-.122.508c-.018.162-.026.271-.026.33a2.2,2.2,0,0,1-.025.264q-.026.176-.074.4c-.033.148-.066.309-.1.485a1.215,1.215,0,0,1-.073.31c-.049.148-.1.3-.146.465s-.1.317-.146.465a1.531,1.531,0,0,0-.073.265.705.705,0,0,1-.12.289c-.081.134-.169.276-.265.424q-.192.226-.384.494a.721.721,0,0,1-.264.293c-.143.107-.3.214-.454.32a2.525,2.525,0,0,1-.477.255,1.168,1.168,0,0,1-.334.1l-.761-.066-.094-.085a.651.651,0,0,1-.189-.258,2.032,2.032,0,0,1-.139-.5,2.837,2.837,0,0,1-.045-.459l0-.482a1.115,1.115,0,0,1,.049-.265,1.452,1.452,0,0,0,.1-.485l.289-.491a2.286,2.286,0,0,0,.264-.337q.167-.245.36-.515l.48-.716a6.346,6.346,0,0,1,.527-.564c.288-.286.606-.588.957-.905s.677-.619.981-.906a5.9,5.9,0,0,1,.6-.522Z" transform="translate(-274.043 -52.639)" fill="#eb8d00"/>
    <path id="패스_9706" data-name="패스 9706" d="M455.418,83.22l.016-2.589a.511.511,0,0,1-.141-.259,1.381,1.381,0,0,1-.092-.48l-.235-.432-.332-.21-.761.022a5.094,5.094,0,0,0-.43.276q-.43.232-.431.407-.052.616-.1,1.1-.051.44-.076.835c-.018.264-.027.425-.027.484l0,.439c0,.117,0,.3,0,.548s-.012.512-.029.79-.027.543-.029.791,0,.432,0,.548l-1.576.967A31.2,31.2,0,0,1,448.32,88.3q-1.457.832-2.891,1.839l-.525.322a3.7,3.7,0,0,0-.336.361,1.226,1.226,0,0,0-.337.58v.219q-.049.177.236.344a1.562,1.562,0,0,1,.237.169l.808.152.667-.195a4.551,4.551,0,0,1,.525-.169.924.924,0,0,0,.382-.164l.764-.461c.1-.061.27-.168.525-.322s.526-.315.812-.484.565-.346.836-.529.485-.321.645-.413l.24-.27a2.477,2.477,0,0,1,.358-.252q.262-.161.549-.345t.549-.345a2.527,2.527,0,0,0,.406-.3l-.029,4.564c0,.117.005.336.02.657s.027.665.041,1.03.026.709.041,1.03.02.541.019.658q.045.35.091.656.045.262.092.546a2.981,2.981,0,0,1,.045.459c0,.118.006.257.021.417a3.832,3.832,0,0,0,.069.459,4.542,4.542,0,0,0,.139.566l.616.465.523-.015a3.165,3.165,0,0,1,.335-.273c.064-.06.135-.136.216-.226a.386.386,0,0,0,.12-.223,2.1,2.1,0,0,1,.05-.33c.032-.162.066-.331.1-.507s.065-.345.1-.507a2.134,2.134,0,0,0,.05-.374l.034-5.309c0-.058,0-.307,0-.746s0-.958-.014-1.557-.016-1.25-.011-1.952,0-1.353-.011-1.952-.017-1.118-.014-1.557,0-.7.005-.79" transform="translate(-294.043 -52.458)" fill="#eb8d00"/>
    <path id="패스_9707" data-name="패스 9707" d="M412.206,88.569q.007-1.053.036-1.975t.032-1.317a2.131,2.131,0,0,0-.091-.59,1.993,1.993,0,0,1-.092-.546l-.332-.209-.521-.292-.573.236c-.095,0-.207.094-.335.273l-.192.269q-.049.177-.219.752a3.462,3.462,0,0,0-.171.794l-.3,2.948a7.986,7.986,0,0,0,.042.876c.03.233.042.891.041,1.125s0,.41,0,.526a8.573,8.573,0,0,1,.25,1.813,3.6,3.6,0,0,0,.395,1.59l.234.52a.465.465,0,0,0,.283.387.727.727,0,0,0,.284.167l.761.066.528-.761a1.185,1.185,0,0,0,.05-.484q0-.438-.042-.942t-.089-.962q-.045-.459-.044-.547a12.7,12.7,0,0,0,.056-1.318c0-.614.011-1.7.015-2.4" transform="translate(-271.023 -55.363)" fill="#eb8d00"/>
    <path id="패스_9708" data-name="패스 9708" d="M504.044,68.762l-.333.01a.577.577,0,0,1-.239.051l-.381.011-.523.059a1.408,1.408,0,0,0-.263.073c-.143.048-.3.1-.476.146s-.342.1-.5.146a1.856,1.856,0,0,1-.286.074.85.85,0,0,1-.287.162c-.127.047-.27.1-.429.166a2.574,2.574,0,0,1-.573.236l-.285.008-.382.187-2,.672-.525.191a1.248,1.248,0,0,0-.31.075l-.5.168c-.191.065-.366.12-.525.169a1.5,1.5,0,0,1-.333.075l-.62.238c-.064.031-.271.125-.62.281s-.6.266-.763.329c-.032,0-.112.062-.239.183l-.144.136c-.095,0-.207.094-.335.273a2.138,2.138,0,0,0-.144.223l-.144.311,0,.439.283.342c.126,0,.333,0,.618,0s.459.009.523.007l-.154,1.759c0,.088-.026.3-.075.638s-.075.536-.075.594c0,.235,0,.629.016,1.184s.017,1.14.013,1.755-.007,1.192-.011,1.733a8.848,8.848,0,0,1-.055,1.12l-.148.75c0,.06,0,.227,0,.5a1.3,1.3,0,0,0,.092.59l.189.214a.6.6,0,0,0,.355.319,1.256,1.256,0,0,0,.5.095l.1,0a4.333,4.333,0,0,1,.476.008.277.277,0,0,0,.286-.162l.525-.366c.064-.031.231-.1.5-.212s.564-.221.883-.333.636-.23.954-.357l.715-.284a1.583,1.583,0,0,0,.524-.147c.222-.094.4-.172.525-.235a.692.692,0,0,0,.215-.094q.167-.092.358-.208t.382-.209a.9.9,0,0,1,.239-.095l1.1-.471.859-.376a1.137,1.137,0,0,0,.6-.28,1.17,1.17,0,0,1,.5-.278l.619-.149c.1-.032.222-.079.382-.143s.326-.126.5-.19.341-.127.5-.19.27-.11.334-.141a.73.73,0,0,1,.144-.18.56.56,0,0,1,.334-.185l.1-.135a.7.7,0,0,1,.05-.309l.1-.178-.141-.3-.332-.122-1.523.088a1.87,1.87,0,0,1-.239.095,2.138,2.138,0,0,1-.334.1l-.524.1-.763.241a2.806,2.806,0,0,0-.668.216,3.285,3.285,0,0,1-.62.216l-.477.189a1.2,1.2,0,0,0-.334.1,5,5,0,0,1-.5.168q-.262.074-.5.146a1.86,1.86,0,0,1-.286.074l-.811.287-.144.136a2.291,2.291,0,0,0-.6.193,2.587,2.587,0,0,1-.548.191l-.381.1a1.066,1.066,0,0,0-.358.142c-.175.093-.294.156-.358.186l-.525.19-.091-.655-.034-2.192.1-.135a1.16,1.16,0,0,0,.263-.1,4.545,4.545,0,0,0,.454-.233,4.56,4.56,0,0,1,.453-.233.994.994,0,0,1,.31-.1l.191-.093a.416.416,0,0,0,.239-.139l.192-.181.524-.147a5.16,5.16,0,0,1,.668-.3,2.49,2.49,0,0,0,.668-.349l.383-.318.429-.144a2.151,2.151,0,0,0,.525-.212,1.793,1.793,0,0,1,.62-.216l2.959-1.4a.79.79,0,0,0,.286-.1.761.761,0,0,0,.191-.137l.145-.4a.762.762,0,0,1,.1-.222l.1-.178-.189-.258-.236-.257-.381.011-3.861,1.077-.382.274a2.355,2.355,0,0,0-.572.126,2.328,2.328,0,0,1-.572.126l-.334.185a.914.914,0,0,0-.358.186.865.865,0,0,1-.406.187l-.572.236a2.219,2.219,0,0,0-.477.145,1.072,1.072,0,0,0-.478.277,1.229,1.229,0,0,0-.477.145,1.258,1.258,0,0,1-.381.143l-.43.232a.744.744,0,0,1-.046-.262l0-.351c0-.028-.007-.16-.021-.394s-.029-.482-.043-.744-.029-.511-.043-.745-.022-.365-.021-.394l-.093-.348h.048q.095-.046.429-.166c.222-.079.469-.16.739-.241a7.222,7.222,0,0,0,.739-.263,3.46,3.46,0,0,0,.477-.233,1.809,1.809,0,0,0,.477-.145q.19-.093.382-.165a1.778,1.778,0,0,0,.334-.163l.191-.094a4.086,4.086,0,0,0,.6-.324,2.026,2.026,0,0,1,.549-.28,3.33,3.33,0,0,1,.549-.191q.357-.1.715-.218t.62-.194a2.256,2.256,0,0,1,.31-.075c.095,0,.23-.1.406-.3s.311-.294.406-.3l.286-.1a1.115,1.115,0,0,1,.382-.187l.286-.1a.724.724,0,0,1,.144-.18,1.388,1.388,0,0,1,.1-.156.266.266,0,0,0,.048-.155l.1-.178a.38.38,0,0,0,0-.263v-.132Z" transform="translate(-325.588 -45.516)" fill="#eb8d00"/>
    <path id="패스_9709" data-name="패스 9709" d="M489.166,120.2l-.145.311,0,.395.14.391a.167.167,0,0,0,.142.172l.19.082a1.111,1.111,0,0,0,.333.034.877.877,0,0,0,.261.037l.214-.006.143,0a3.632,3.632,0,0,0,.4-.056c.206-.034.421-.078.643-.128s.436-.1.643-.15a2.5,2.5,0,0,1,.453-.079,2.416,2.416,0,0,0,.548-.213,2.078,2.078,0,0,1,.6-.215c.159-.063.412-.15.763-.263a3.422,3.422,0,0,1,.667-.173l.334-.141a1.124,1.124,0,0,0,.238-.073q.19-.071.453-.145c.174-.049.334-.1.477-.145a1.45,1.45,0,0,1,.262-.073l.335-.273a1.072,1.072,0,0,0,.453-.145,1.059,1.059,0,0,1,.358-.142l.525-.147.62-.325a1.846,1.846,0,0,0,.477-.19,1.826,1.826,0,0,1,.477-.189l.763-.242a1.141,1.141,0,0,0,.238-.073q.19-.07.429-.188a3.8,3.8,0,0,1,.453-.189,1.446,1.446,0,0,1,.262-.073l.716-.328.429-.144a2.256,2.256,0,0,0,.549-.236,1.846,1.846,0,0,1,.644-.238l.619-.15a1.235,1.235,0,0,0,.287-.118q.238-.116.5-.234c.174-.077.342-.156.5-.234a1.245,1.245,0,0,1,.286-.118,1.152,1.152,0,0,0,.239-.073,3.265,3.265,0,0,0,.405-.187,3.26,3.26,0,0,1,.406-.187,1.12,1.12,0,0,1,.239-.073,3.3,3.3,0,0,1,.5-.234,1.956,1.956,0,0,1,.453-.145.509.509,0,0,0,.358-.186c.112-.12.168-.209.168-.268l.241-.49-.236-.3-.285-.079-.666.019a2.708,2.708,0,0,0-.358.1q-.31.1-.667.2t-.691.2a2.313,2.313,0,0,1-.429.1,1.828,1.828,0,0,0-.309.053,1.762,1.762,0,0,1-.31.053l-.143,0a1.892,1.892,0,0,0-.5.212,1.927,1.927,0,0,1-.5.212,2.2,2.2,0,0,0-.31.074q-.262.074-.619.15t-.667.151a2.606,2.606,0,0,1-.405.077,2.855,2.855,0,0,0-.524.147,2.542,2.542,0,0,1-.572.148l-.43.276-.714.109-.429.144-.333.01-.382.231a3.9,3.9,0,0,0-.548.125,3.231,3.231,0,0,1-.643.128,1.631,1.631,0,0,0-.334.141q-.287.139-.644.282t-.668.283a1.983,1.983,0,0,1-.358.142,4.69,4.69,0,0,1-.477.167q-.382.121-.81.243l-.763.219a1.437,1.437,0,0,0-.382.143,1.022,1.022,0,0,0-.334.12q-.239.117-.524.234c-.191.079-.358.157-.5.234a.994.994,0,0,1-.262.117l-.524.147a1.637,1.637,0,0,0-.524.19,2.734,2.734,0,0,1-.334.142,4.393,4.393,0,0,0-.692.393,1.986,1.986,0,0,1-.549.3Z" transform="translate(-323.695 -75.171)" fill="#eb8d00"/>
    <path id="패스_9710" data-name="패스 9710" d="M502.406,142.748a2.889,2.889,0,0,0,.084.352.754.754,0,0,0,.126.272.567.567,0,0,0,.255.248,2.173,2.173,0,0,1,.3.208.612.612,0,0,1,.362.126.579.579,0,0,0,.276.131l.427-.012a1.942,1.942,0,0,0,.471-.231,3.045,3.045,0,0,0,.387-.266l.387-.485a1.433,1.433,0,0,1,.491-.112.808.808,0,0,0,.492-.191l.385-.209.428-.169.6-.253c.028-.054.128-.11.3-.167s.349-.109.534-.153.356-.09.513-.133a2.252,2.252,0,0,0,.321-.108.559.559,0,0,0,.193-.1c.1-.067.215-.143.344-.225s.249-.158.364-.228a.707.707,0,0,1,.214-.1l2.61-.942.642-.293a2.178,2.178,0,0,0,.492-.191,2.154,2.154,0,0,1,.491-.191,1.1,1.1,0,0,1,.257-.165,2.6,2.6,0,0,0,.3-.167,1.909,1.909,0,0,1,.343-.128l.73-.73a.716.716,0,0,0,.259-.519l-.126-.311-.127-.115-.853.025-.258.086a.448.448,0,0,1-.192.046l-.149,0a1.328,1.328,0,0,0-.449.171,1.3,1.3,0,0,1-.449.169,2.122,2.122,0,0,0-.385.091q-.3.087-.662.2t-.664.2a2.849,2.849,0,0,1-.341.088l-.428.131a1.037,1.037,0,0,0-.213.065c-.115.043-.236.086-.364.129s-.243.08-.341.109a1.127,1.127,0,0,1-.192.045l-.343.088-.6.214-.257.125q-.215.047-.769.22t-1.156.367c-.4.13-.762.253-1.09.366s-.521.187-.578.213a.969.969,0,0,0-.321.127.95.95,0,0,1-.406.13c0-.078-.006-.236-.018-.472s-.02-.378-.02-.432l-.151-3.144a.742.742,0,0,0-.126-.291.747.747,0,0,1-.126-.37l-.083-.313-.3-.128a.343.343,0,0,0-.256-.012.52.52,0,0,1-.128.082.656.656,0,0,1-.257.047.674.674,0,0,0-.3.344,2.475,2.475,0,0,0-.13.417,1.649,1.649,0,0,1-.13.4c-.088.213-.1.357-.046.435a.494.494,0,0,0-.129.2,1.507,1.507,0,0,0-.087.278,2.64,2.64,0,0,1-.048.769c-.06.356-.088.56-.088.612,0,.027-.008.1-.024.217s-.03.244-.044.375-.031.264-.046.4-.022.211-.023.237c.027.025.034.084.02.176a1.867,1.867,0,0,0-.023.3,1.491,1.491,0,0,1-.024.277c-.015.079-.008.132.022.158l-.218.517Z" transform="translate(-332.477 -89.627)" fill="#eb8d00"/>
    <path id="패스_9711" data-name="패스 9711" d="M257.828,100.615l.481-.11c-.144.023-.329.075-.481.11" transform="translate(-170.664 -66.527)" fill="#eb8d00"/>
    <rect id="사각형_2216" data-name="사각형 2216" width="201.075" height="76.785" fill="none"/>
  </g>
  <rect id="사각형_2217" data-name="사각형 2217" width="201.075" height="76.785" fill="none"/>
</svg>
