<svg id="upload_1" data-name="upload 1" xmlns="http://www.w3.org/2000/svg" width="23.001" height="23" viewBox="0 0 23.001 23">
  <path id="plus-square-o" d="M18.818,10.977v1.045a.5.5,0,0,1-.523.523H12.545V18.3a.5.5,0,0,1-.523.523H10.977a.5.5,0,0,1-.523-.523v-5.75H4.7a.5.5,0,0,1-.523-.523V10.977a.5.5,0,0,1,.523-.523h5.75V4.7a.5.5,0,0,1,.523-.523h1.045a.5.5,0,0,1,.523.523v5.75H18.3a.5.5,0,0,1,.523.523ZM20.91,18.3V4.7a2.515,2.515,0,0,0-.768-1.846A2.52,2.52,0,0,0,18.3,2.091H4.7a2.515,2.515,0,0,0-1.846.768A2.52,2.52,0,0,0,2.091,4.7V18.3a2.515,2.515,0,0,0,.768,1.846A2.52,2.52,0,0,0,4.7,20.91H18.3A2.622,2.622,0,0,0,20.91,18.3ZM23,4.7V18.3A4.713,4.713,0,0,1,18.3,23H4.7a4.53,4.53,0,0,1-3.324-1.381A4.535,4.535,0,0,1,0,18.3V4.7A4.53,4.53,0,0,1,1.381,1.381,4.535,4.535,0,0,1,4.7,0H18.3A4.53,4.53,0,0,1,21.62,1.381,4.532,4.532,0,0,1,23,4.7Z"/>
</svg>
