<svg xmlns="http://www.w3.org/2000/svg" width="23.303" height="23.3" viewBox="0 0 23.303 23.3">
  <g id="shopping_cart" data-name="shopping cart" transform="translate(0.15 0.15)">
    <path id="패스_9260" data-name="패스 9260" d="M11.34,30.42a1.17,1.17,0,1,1-1.17-1.17A1.17,1.17,0,0,1,11.34,30.42Z" transform="translate(-2.395 -8.59)" fill="#000a0a" stroke="#000" stroke-linecap="round" stroke-width="0.3"/>
    <path id="패스_9261" data-name="패스 9261" d="M27.09,30.42a1.17,1.17,0,1,1-1.17-1.17A1.17,1.17,0,0,1,27.09,30.42Z" transform="translate(-5.859 -8.59)" fill="#000a0a" stroke="#000" stroke-linecap="round" stroke-width="0.3"/>
    <path id="패스_9262" data-name="패스 9262" d="M22.188,6.68H4.612l-.65-3.721A.818.818,0,0,0,3.17,2.25H0V4.022H2.52l3.027,17.01a.818.818,0,0,0,.792.709H20.6V19.968H6.989l-.649-3.544H20.6a.815.815,0,0,0,.792-.691L22.981,7.76A.966.966,0,0,0,22.82,7a.761.761,0,0,0-.632-.324Zm-2.219,7.973H6.038l-1.109-6.2H21.2Z" transform="translate(0 -2.25)" fill="#000a0a" stroke="#000" stroke-linecap="round" stroke-width="0.3"/>
  </g>
</svg>
