<svg xmlns="http://www.w3.org/2000/svg" width="18.139" height="23.301" viewBox="0 0 18.139 23.301">
  <g id="notification_Bell" data-name="notification Bell" transform="translate(0.125 0.15)">
    <path id="패스_9019" data-name="패스 9019" d="M17.222,30.729l-.761.35.757-.358-.044-.089a12.971,12.971,0,0,1-.711-1.611,4,4,0,0,1-.2-.927,6.237,6.237,0,0,1,.012-1.011,10.518,10.518,0,0,0-.7-5.81A7.238,7.238,0,0,0,8.936,17.5a7.231,7.231,0,0,0-6.623,3.773,10.52,10.52,0,0,0-.7,5.811,6.237,6.237,0,0,1,.012,1.011,4.014,4.014,0,0,1-.2.927,13.03,13.03,0,0,1-.713,1.617l-.046.092C.283,31.5-.356,32.8.248,33.755a1.8,1.8,0,0,0,1.62.77c1.034.014,2.063.02,3.078.022a4.029,4.029,0,0,0,8,0q1.524,0,3.078-.021a1.8,1.8,0,0,0,1.62-.77c.6-.958-.035-2.253-.417-3.026m-8.278,5.7a2.327,2.327,0,0,1-2.3-1.884c.78,0,1.548-.006,2.295-.011h0c.751,0,1.522.009,2.305.011a2.327,2.327,0,0,1-2.3,1.884m7.264-3.573A.978.978,0,0,1,16,32.88c-1.132.015-2.26.021-3.371.022H12.09c-1.047,0-2.093,0-3.15-.012h0q-1.57.01-3.14.012H5.279c-1.116,0-2.25-.007-3.388-.022a.977.977,0,0,1-.211-.022,3.483,3.483,0,0,1,.5-1.42l.041-.083a14.439,14.439,0,0,0,.8-1.823,5.612,5.612,0,0,0,.276-1.3,7.743,7.743,0,0,0-.011-1.269A9.125,9.125,0,0,1,3.821,22a5.573,5.573,0,0,1,5.115-2.856A5.581,5.581,0,0,1,14.066,22,9.123,9.123,0,0,1,14.6,26.96a7.768,7.768,0,0,0-.011,1.269,5.608,5.608,0,0,0,.276,1.3,14.428,14.428,0,0,0,.8,1.817l.048.1a3.453,3.453,0,0,1,.5,1.412" transform="translate(0 -15.076)" fill="#000a0a" stroke="#000" stroke-width="0.3"/>
    <path id="패스_9020" data-name="패스 9020" d="M30.012,1.246h4.1a.641.641,0,0,0,.658-.623A.641.641,0,0,0,34.108,0h-4.1a.641.641,0,0,0-.658.623.641.641,0,0,0,.658.623" transform="translate(-23.115)" fill="#000a0a" stroke="#000" stroke-width="0.3"/>
  </g>
</svg>
